<?xml version="1.0" encoding="UTF-8" standalone="no" ?>
<!DOCTYPE svg PUBLIC "-//W3C//DTD SVG 1.1//EN" "http://www.w3.org/Graphics/SVG/1.1/DTD/svg11.dtd">
<svg xmlns="http://www.w3.org/2000/svg" xmlns:xlink="http://www.w3.org/1999/xlink" version="1.1" width="30" height="30" viewBox="0 0 30 30" xml:space="preserve">
<desc>Created with Fabric.js 3.6.6</desc>
<defs>
</defs>
<g transform="matrix(0.04 0 0 0.04 12 15)"  >
<g style=""   >
		<g transform="matrix(0.13 0 0 -0.13 25.19 -24.15)"  >
<path style="stroke: none; stroke-width: 1; stroke-dasharray: none; stroke-linecap: butt; stroke-dashoffset: 0; stroke-linejoin: miter; stroke-miterlimit: 4; fill: rgb(0,0,0); fill-rule: nonzero; opacity: 1;"  transform=" translate(-3188.91, -3181.13)" d="M 2691 5815 c -545 -63 -1055 -275 -1481 -619 c -102 -82 -331 -312 -414 -416 c -72 -91 -246 -346 -246 -362 c 0 -5 8 -7 18 -4 c 9 2 85 8 167 12 l 150 7 l 62 86 c 82 113 227 272 333 367 c 388 348 842 561 1360 641 c 144 22 537 25 680 5 c 285 -40 547 -120 795 -241 c 776 -381 1295 -1102 1417 -1971 c 20 -143 17 -536 -5 -680 c -106 -688 -467 -1294 -1009 -1693 l -96 -71 l -6 -105 c -4 -59 -9 -135 -12 -170 l -6 -64 l 49 28 c 188 109 377 258 559 439 c 437 438 707 981 800 1610 c 24 160 29 494 11 666 c -41 377 -137 699 -308 1029 c -356 687 -994 1207 -1742 1417 c -107 30 -298 69 -382 79 c -33 4 -71 9 -85 11 c -72 13 -493 12 -609 -1 z" stroke-linecap="round" />
</g>
		<g transform="matrix(0.13 0 0 -0.13 9.54 10.87)"  >
<path style="stroke: none; stroke-width: 1; stroke-dasharray: none; stroke-linecap: butt; stroke-dashoffset: 0; stroke-linejoin: miter; stroke-miterlimit: 4; fill: rgb(0,0,0); fill-rule: nonzero; opacity: 1;"  transform=" translate(-3071.58, -2918.5)" d="M 3130 3402 c 0 -1260 2 -1209 -56 -1324 c -14 -28 -50 -75 -80 -105 c -177 -177 -466 -177 -645 0 c -81 80 -139 212 -139 319 c 0 175 108 346 265 420 c 101 47 188 56 303 32 l 32 -6 l 0 285 l 0 285 l -30 7 c -57 12 -227 7 -311 -10 c -198 -40 -355 -124 -508 -270 c -102 -97 -156 -171 -216 -296 c -280 -582 41 -1268 674 -1436 c 83 -23 116 -26 251 -26 c 135 0 168 3 252 26 c 419 111 715 450 768 877 c 6 50 10 331 10 689 l 0 604 l 54 -51 c 132 -125 307 -200 551 -237 c 55 -8 121 -15 148 -15 l 47 0 l -2 302 l -3 302 l -45 8 c -62 11 -224 65 -285 95 c -115 58 -247 174 -325 288 c -63 92 -140 292 -140 365 c 0 22 -93 30 -367 30 l -203 0 l 0 -1158 z" stroke-linecap="round" />
</g>
</g>
</g>
</svg>