<?xml version="1.0" encoding="UTF-8"?>
<svg id="Warstwa_2" data-name="Warstwa 2" xmlns="http://www.w3.org/2000/svg" viewBox="0 0 276.41 274.36">
  <defs>
    <style>
      .cls-1 {
        font-family: Roboto-BlackItalic, Roboto;
        font-size: 99.09px;
        font-style: italic;
        font-weight: 800;
      }

      .cls-1, .cls-2 {
        fill: #1d1d1b;
      }
    </style>
  </defs>
  <g id="Warstwa_1-2" data-name="Warstwa 1">
    <path class="cls-2" d="m209.78,0h-119.65l.12.1-42.42-.1-20.44,118.06h38.52l15.23-87.67,14.75.11c8.55.3,14.97,3.57,19.25,9.79,4.28,6.23,6.15,15.35,5.63,27.35l-.22,3.71c-1.5,21.01-6.25,36.62-14.24,46.82-7.99,10.21-18.59,15.31-31.8,15.31l-8.98-.09H25.85l-22.3,30.48h70.96c14.11-.15,27.24-3.62,39.39-10.41,12.16-6.79,22.1-16.15,29.83-28.08,1.54-2.38,2.94-4.83,4.26-7.33h64.55l15.01,45.82h45.32L209.78,0Zm-50,81.94l25.34-53.85,27.41,53.85h-52.75Z"/>
    <text class="cls-1" transform="translate(0 247.51) scale(1.03 1)"><tspan x="0" y="0">NEWS</tspan></text>
  </g>
</svg>