<?xml version="1.0" encoding="UTF-8" standalone="no" ?>
<!DOCTYPE svg PUBLIC "-//W3C//DTD SVG 1.1//EN" "http://www.w3.org/Graphics/SVG/1.1/DTD/svg11.dtd">
<svg xmlns="http://www.w3.org/2000/svg" xmlns:xlink="http://www.w3.org/1999/xlink" version="1.1" width="30" height="30" viewBox="0 0 30 30" xml:space="preserve">
<desc>Created with Fabric.js 3.6.6</desc>
<defs>
</defs>
<g transform="matrix(0.03 0 0 0.03 15.25 16.25)"  >
<g style=""   >
		<g transform="matrix(0.13 0 0 -0.13 0.18 -0.07)"  >
<path style="stroke: none; stroke-width: 1; stroke-dasharray: none; stroke-linecap: butt; stroke-dashoffset: 0; stroke-linejoin: miter; stroke-miterlimit: 4; fill: rgb(0,0,0); fill-rule: nonzero; opacity: 1;"  transform=" translate(-4601.34, -4600.56)" d="M 4380 8034 c -361 -27 -553 -64 -880 -170 c -58 -19 -114 -38 -125 -43 c -11 -5 -76 -33 -145 -62 c -69 -29 -149 -66 -177 -81 c -144 -76 -174 -94 -251 -141 c -45 -29 -90 -56 -100 -62 c -95 -54 -347 -256 -506 -405 c -131 -124 -406 -457 -471 -572 c -5 -10 -33 -55 -62 -100 c -47 -77 -65 -107 -141 -250 c -15 -29 -52 -109 -81 -178 c -29 -69 -57 -134 -62 -145 c -5 -11 -24 -67 -43 -125 c -108 -335 -144 -521 -170 -897 c -25 -366 18 -787 116 -1128 c 28 -95 86 -275 97 -300 c 6 -11 28 -65 51 -120 c 41 -98 117 -256 158 -325 c 11 -19 29 -51 40 -70 c 11 -19 37 -62 58 -95 c 21 -33 43 -67 49 -76 c 5 -9 24 -35 40 -59 c 17 -23 37 -53 45 -65 c 55 -80 216 -270 330 -388 c 70 -74 219 -206 339 -301 c 68 -55 333 -236 344 -236 c 3 0 38 -19 79 -43 c 181 -107 458 -225 678 -291 c 291 -87 454 -115 800 -140 c 595 -44 1222 84 1762 359 c 47 25 101 53 120 64 c 18 11 49 28 68 39 c 19 11 62 37 95 58 c 33 21 67 43 76 49 c 9 5 35 24 59 40 c 23 17 53 37 65 45 c 89 61 358 293 435 377 c 104 110 261 297 310 368 c 8 12 29 42 45 65 c 17 24 35 50 40 59 c 6 9 28 43 49 76 c 21 33 47 76 58 95 c 11 19 28 50 39 68 c 88 150 194 392 263 603 c 217 658 226 1381 26 2059 c -70 236 -186 510 -297 698 c -24 41 -43 76 -43 78 c 0 9 -150 233 -204 304 c -79 104 -178 221 -261 309 c -101 106 -361 333 -460 401 c -12 8 -42 29 -65 45 c -24 17 -50 35 -59 40 c -9 6 -43 28 -76 49 c -33 21 -76 47 -95 58 c -19 11 -51 29 -70 40 c -69 41 -227 117 -325 158 c -55 23 -109 45 -120 51 c -11 5 -67 24 -125 43 c -314 101 -513 141 -815 165 c -228 18 -321 19 -505 5 z m 1460 -1943 c 449 -25 551 -53 687 -189 c 107 -108 174 -290 202 -547 c 27 -252 31 -347 31 -754 c 0 -408 -5 -527 -31 -761 c -27 -246 -86 -424 -176 -530 c -68 -81 -204 -155 -333 -179 c -149 -29 -625 -41 -1599 -41 c -996 0 -1343 8 -1556 36 c -261 35 -399 117 -484 287 c -108 215 -131 396 -138 1112 c -5 485 -1 604 28 845 c 31 261 92 423 200 531 c 140 140 248 168 724 188 c 149 7 293 13 320 15 c 125 8 1950 -3 2125 -13 z" stroke-linecap="round" />
</g>
		<g transform="matrix(0.13 0 0 -0.13 -1.33 0)"  >
<path style="stroke: none; stroke-width: 1; stroke-dasharray: none; stroke-linecap: butt; stroke-dashoffset: 0; stroke-linejoin: miter; stroke-miterlimit: 4; fill: rgb(0,0,0); fill-rule: nonzero; opacity: 1;"  transform=" translate(-4590, -4600)" d="M 4030 4600 l 0 -569 l 560 281 c 308 154 560 284 560 288 c 0 4 -252 134 -560 288 l -560 281 l 0 -569 z" stroke-linecap="round" />
</g>
</g>
</g>
</svg>