<?xml version="1.0" encoding="UTF-8" standalone="no" ?>
<!DOCTYPE svg PUBLIC "-//W3C//DTD SVG 1.1//EN" "http://www.w3.org/Graphics/SVG/1.1/DTD/svg11.dtd">
<svg xmlns="http://www.w3.org/2000/svg" xmlns:xlink="http://www.w3.org/1999/xlink" version="1.1" width="30" height="30" viewBox="0 0 30 30" xml:space="preserve">
<desc>Created with Fabric.js 3.6.6</desc>
<defs>
</defs>
<g transform="matrix(0.01 0 0 -0.01 15.09 15.12)"  >
<path style="stroke: none; stroke-width: 1; stroke-dasharray: none; stroke-linecap: butt; stroke-dashoffset: 0; stroke-linejoin: miter; stroke-miterlimit: 4; fill: rgb(0,0,0); fill-rule: nonzero; opacity: 1;"  transform=" translate(-4500.21, -2499.75)" d="M 4305 4335 c -692 -74 -1271 -518 -1528 -1171 c -184 -469 -157 -1037 72 -1493 c 147 -291 375 -544 656 -727 c 242 -157 517 -250 828 -281 c 154 -15 180 -15 335 0 c 586 57 1078 359 1395 854 c 216 338 314 759 272 1168 c -9 90 -29 209 -45 271 c -156 606 -605 1091 -1197 1293 c -130 44 -245 69 -408 86 c -164 17 -218 17 -380 0 z m 710 -925 l 0 -185 l -131 -6 c -194 -8 -205 -18 -212 -206 l -5 -123 l 159 0 c 88 0 166 -4 173 -9 c 13 -8 13 -33 -2 -191 c -9 -100 -20 -186 -23 -191 c -3 -5 -70 -9 -150 -9 l -144 0 l 0 -545 c 0 -508 -1 -545 -17 -553 c -14 -6 -378 -9 -440 -3 c -10 1 -13 117 -13 545 c 0 388 -3 547 -11 552 c -6 3 -52 6 -103 5 c -50 -1 -97 3 -104 7 c -9 6 -12 52 -10 193 l 3 184 l 110 5 l 110 5 l 6 195 c 7 239 22 291 117 392 c 102 110 170 127 472 125 l 215 -2 l 0 -185 z" stroke-linecap="round" />
</g>
</svg>