<svg width="90" height="88" viewBox="0 0 90 88" fill="none" xmlns="http://www.w3.org/2000/svg">
<path d="M67.2382 7H28.87L28.9085 7.03212L15.3056 7L8.7511 44.9204H21.1033L25.9871 16.7611L30.717 16.7965C33.4588 16.8928 35.5175 17.9431 36.8899 19.941C38.2624 21.942 38.8621 24.8713 38.6953 28.7257L38.6248 29.9173C38.1438 36.6656 36.6206 41.6795 34.0584 44.9557C31.4963 48.2351 28.0972 49.8732 23.8611 49.8732L20.9815 49.8443H8.25727L1.10631 59.6343H23.8611C28.3858 59.5862 32.5962 58.4716 36.4923 56.2907C40.3917 54.1098 43.5791 51.1034 46.0579 47.2715C46.5518 46.5071 47.0007 45.7201 47.424 44.9172H68.1233L72.9365 59.6343H87.4693L67.2382 7ZM51.2047 33.3188L59.3305 16.0224L68.1201 33.3188H51.2047Z" fill="white"/>
<path d="M18.9548 86.6282H13.6413L8.05525 72.3447L5.48667 86.6282H0L4.04366 64H9.40527L14.9753 78.2836L17.5279 64H23.0177L18.958 86.6282H18.9548Z" fill="#F20F0F"/>
<path d="M38.8091 77.0245H30.2215L29.2435 82.4334H39.4023L38.6487 86.6282H23L27.0437 64H42.7245L41.9709 68.2109H31.796L30.9302 72.9806H39.5338L38.8123 77.0213L38.8091 77.0245Z" fill="#F20F0F"/>
<path d="M59.5658 78.1262L64.4432 64H69.9973L61.5219 86.6282H55.8397L54.8937 73.8061L49.8527 86.6282H44.1704L43 64H48.3456L48.6663 78.0652L54.0279 64H58.6968L59.5626 78.1262H59.5658Z" fill="#F20F0F"/>
<path d="M82.2855 80.8188C82.5196 79.6464 81.8686 78.7407 80.3262 78.0983L77.6935 77.0415C74.0026 75.4355 72.2485 73.2482 72.4281 70.4827C72.5018 69.2172 72.9508 68.093 73.7749 67.1037C74.599 66.1145 75.7374 65.3436 77.1932 64.7943C78.6491 64.2451 80.2364 63.9817 81.9616 64.001C84.2736 64.0427 86.1303 64.6948 87.5381 65.9603C88.9458 67.2258 89.6385 68.9185 89.616 71.0416H84.1582C84.1903 70.1712 84.0011 69.4742 83.5874 68.9506C83.1737 68.4271 82.4971 68.154 81.5575 68.1348C80.6372 68.1155 79.8227 68.3211 79.1173 68.7579C78.4118 69.1915 77.9949 69.7793 77.8666 70.5148C77.6646 71.5523 78.4567 72.4003 80.2492 73.0651C82.0418 73.7268 83.3437 74.2985 84.1582 74.7739C86.7139 76.2546 87.9132 78.2557 87.7529 80.7738C87.6663 82.0779 87.2334 83.2245 86.4542 84.2074C85.6718 85.1903 84.5911 85.9547 83.2058 86.4911C81.8205 87.0307 80.2652 87.2877 78.5432 87.2684C77.2798 87.2491 76.1094 87.0564 75.0287 86.6935C73.948 86.3305 73.0213 85.8037 72.2517 85.1068C70.69 83.7095 69.9397 81.8691 70.0038 79.5886L75.5097 79.6047C75.4456 80.7642 75.6765 81.6443 76.1991 82.2385C76.7218 82.8359 77.6069 83.1314 78.8479 83.1314C79.7682 83.1314 80.5346 82.9258 81.1503 82.5179C81.766 82.11 82.1412 81.5415 82.2823 80.8156L82.2855 80.8188Z" fill="#F20F0F"/>
<ellipse cx="81.2469" cy="7.5" rx="7.51042" ry="7.5" fill="#F20F0F"/>
</svg>
